<svg width="17" height="16" viewBox="0 0 17 16" fill="none" xmlns="http://www.w3.org/2000/svg">
<path d="M1.51953 1.5C1.38692 1.5 1.25975 1.55268 1.16598 1.64645C1.07221 1.74021 1.01953 1.86739 1.01953 2V6.8C1.01953 7.1283 1.0842 7.45339 1.20983 7.75671C1.33547 8.06002 1.51962 8.33562 1.75176 8.56777C2.22061 9.03661 2.85649 9.3 3.51953 9.3H13.3125L9.96553 12.646C9.87164 12.7399 9.8189 12.8672 9.8189 13C9.8189 13.1328 9.87164 13.2601 9.96553 13.354C10.0594 13.4479 10.1868 13.5006 10.3195 13.5006C10.4523 13.5006 10.5796 13.4479 10.6735 13.354L14.8735 9.154C14.9201 9.10755 14.957 9.05238 14.9822 8.99163C15.0075 8.93089 15.0204 8.86577 15.0204 8.8C15.0204 8.73423 15.0075 8.66911 14.9822 8.60837C14.957 8.54762 14.9201 8.49245 14.8735 8.446L10.8735 4.446C10.7796 4.35211 10.6523 4.29937 10.5195 4.29937C10.3868 4.29937 10.2594 4.35211 10.1655 4.446C10.0716 4.53989 10.0189 4.66722 10.0189 4.8C10.0189 4.93278 10.0716 5.06011 10.1655 5.154L13.3125 8.3H3.51953C3.12171 8.3 2.74018 8.14196 2.45887 7.86066C2.17757 7.57936 2.01953 7.19782 2.01953 6.8V2C2.01953 1.86739 1.96685 1.74021 1.87308 1.64645C1.77932 1.55268 1.65214 1.5 1.51953 1.5Z" fill-rule="evenodd" clip-rule="evenodd" fill="currentColor"/>
</svg>
