<svg width="17" height="17" viewBox="0 0 17 17" fill="none" xmlns="http://www.w3.org/2000/svg">
<path d="M1.73502 2.56901C1.57153 2.88988 1.57153 3.30992 1.57153 4.15V13.35C1.57153 14.1901 1.57153 14.6101 1.73502 14.931C1.87883 15.2132 2.1083 15.4427 2.39055 15.5865C2.71142 15.75 3.13145 15.75 3.97153 15.75H13.1715C14.0116 15.75 14.4317 15.75 14.7525 15.5865C15.0348 15.4427 15.2642 15.2132 15.408 14.931C15.5715 14.6101 15.5715 14.1901 15.5715 13.35V4.15C15.5715 3.30992 15.5715 2.88988 15.408 2.56901C15.2642 2.28677 15.0348 2.0573 14.7525 1.91349C14.4317 1.75 14.0116 1.75 13.1715 1.75H3.97153C3.13145 1.75 2.71142 1.75 2.39055 1.91349C2.1083 2.0573 1.87883 2.28677 1.73502 2.56901ZM7.23295 9.20138L6.50422 8.23582C6.37086 8.05911 6.10546 8.05911 5.9721 8.23582L3.97462 10.8825C3.80887 11.1021 3.96553 11.4166 4.24068 11.4166H6.23333L6.23816 11.4167H12.9048C13.1795 11.4167 13.3363 11.1031 13.1715 10.8833L9.83816 6.43888C9.70483 6.2611 9.43816 6.2611 9.30483 6.43888L7.23295 9.20138Z" fill-rule="evenodd" fill="currentColor"/>
</svg>
