<svg width="24" height="24" viewBox="0 0 24 24" fill="none" xmlns="http://www.w3.org/2000/svg">
<path d="M11.0969 1.57024C11.3343 1.07173 11.9314 0.859446 12.4299 1.09661C12.9284 1.33399 13.1407 1.93106 12.9036 2.42961L9.90356 8.72942C9.75957 9.03178 9.47335 9.24255 9.14184 9.28997L4.17309 9.99895L7.69262 13.3789C7.93254 13.6092 8.04258 13.9437 7.98559 14.2714L7.13012 19.1874L11.5413 16.9111C12.032 16.6578 12.6356 16.851 12.8889 17.3417C13.1419 17.8323 12.9496 18.4351 12.4592 18.6884L6.25903 21.8886C5.92162 22.0628 5.51432 22.0303 5.20824 21.8056C4.90253 21.581 4.74987 21.2028 4.81469 20.829L5.92309 14.4521L1.30785 10.0214C1.03196 9.75655 0.930854 9.35713 1.04809 8.99309C1.16536 8.62919 1.48014 8.36361 1.85864 8.3095L8.32739 7.38469L11.0969 1.57024Z" fill="currentColor"/>
</svg>
